<?xml version="1.0" encoding="utf-8"?>
<!-- Svg Vector Icons : http://www.onlinewebfonts.com/icon -->
<!DOCTYPE svg PUBLIC "-//W3C//DTD SVG 1.1//EN" "http://www.w3.org/Graphics/SVG/1.1/DTD/svg11.dtd">
<svg version="1.1" xmlns="http://www.w3.org/2000/svg" xmlns:xlink="http://www.w3.org/1999/xlink" x="0px" y="0px" viewBox="0 0 1000 1000" enable-background="new 0 0 1000 1000" xml:space="preserve">
<metadata> Svg Vector Icons : http://www.onlinewebfonts.com/icon </metadata>
<g><path d="M622.5,990v-91.9h30.6v-91.9h30.6v-91.9l0-85.1c96-62.5,153.1-167.4,153.1-282.4C836.9,161.1,685.8,10,500,10c-185.8,0-336.9,151.1-336.9,336.9c0,114.2,58.4,222.2,153.1,284v52.8v30.6v91.9h30.6v91.9h30.6V990H622.5z M591.9,959.4H408.1v-61.3h183.8V959.4z M339.6,609.5c-90-55.4-145.8-156-145.8-262.6C193.8,178,331.1,40.6,500,40.6S806.3,178,806.3,346.9c0,107.1-54.5,204.7-145.8,260.9l-7.3,4.5v71.4H579l43.3-288.7l-30.3-4.5l-1.7,11.1l-43,32.2L500,386.5l-47.4,47.4l-43-32.2l-1.7-11.1l-30.3,4.5L421,683.8h-74.1v-69.8L339.6,609.5z M451.9,683.8l-35.8-239l39.4,29.6l44.5-44.5l44.5,44.5l39.4-29.6l-35.8,239H451.9z M346.9,714.4h306.3v61.3H346.9V714.4z M377.5,806.3h245v61.3h-245V806.3z"/></g>
</svg>