<svg width="78" height="16" viewBox="0 0 78 16" fill="none" xmlns="http://www.w3.org/2000/svg">
<path d="M16.112 4.52571H13.9384V4.03358C13.9502 3.57574 13.8278 3.12454 13.5865 2.73616C13.3519 2.37176 12.9574 2.18956 12.403 2.18956C12.1502 2.17801 11.8992 2.23726 11.6779 2.36073C11.4998 2.46897 11.3473 2.61502 11.2312 2.78867C11.1145 2.98278 11.0351 3.19724 10.9972 3.42086C10.9539 3.66481 10.9325 3.9122 10.9334 4.16002C10.9314 4.4107 10.9424 4.66132 10.9663 4.91086C10.9838 5.09875 11.0384 5.28126 11.1268 5.44773C11.2166 5.61209 11.3438 5.75273 11.498 5.85815C11.7084 5.99693 11.9335 6.11176 12.1691 6.20051L12.3837 6.28609L13.8321 6.86964C14.2555 7.02186 14.6513 7.24263 15.0039 7.52322C15.2925 7.76144 15.5311 8.05502 15.7059 8.38688C15.8695 8.75774 15.977 9.15112 16.025 9.55398C16.0851 10.0483 16.1135 10.546 16.11 11.044C16.114 11.646 16.0491 12.2464 15.9167 12.8335C15.8084 13.3394 15.5977 13.8175 15.2979 14.2379C14.991 14.6452 14.5883 14.9694 14.126 15.1814C13.5683 15.4247 12.9643 15.5416 12.3566 15.5237C11.8534 15.528 11.3542 15.4336 10.887 15.2455C10.4479 15.069 10.0491 14.8042 9.71512 14.4675C9.38858 14.1366 9.12626 13.7474 8.94162 13.3198C8.74683 12.8703 8.64864 12.3844 8.65349 11.894V11.079H10.829V11.7656C10.8218 12.1593 10.9442 12.5443 11.177 12.8608C11.4117 13.1824 11.8062 13.3432 12.3605 13.3432C12.6566 13.3575 12.9519 13.3022 13.223 13.1817C13.4244 13.0788 13.5912 12.9185 13.7025 12.7207C13.819 12.4988 13.8851 12.2537 13.8959 12.0029C13.9165 11.7241 13.9275 11.4136 13.9288 11.0712C13.932 10.7419 13.9178 10.4128 13.8862 10.085C13.8695 9.86851 13.8117 9.65722 13.7161 9.46255C13.6186 9.30472 13.4862 9.1716 13.3293 9.07352C13.1205 8.95125 12.9034 8.844 12.6796 8.75257L11.1326 8.10872C10.1953 7.71968 9.56687 7.20875 9.24715 6.57592C8.90372 5.82771 8.73947 5.00893 8.76758 4.18531C8.76151 3.63235 8.83777 3.0816 8.99383 2.55136C9.13562 2.06473 9.37519 1.61255 9.69772 1.22281C10.0036 0.844785 10.3903 0.540946 10.829 0.333871C11.3478 0.100322 11.9121 -0.0133369 12.4804 0.0012451C12.9896 -0.00510948 13.4944 0.0969765 13.9616 0.3008C14.3937 0.491116 14.7871 0.760189 15.1219 1.09443C15.4326 1.40232 15.6793 1.76934 15.8477 2.17409C16.016 2.57884 16.1025 3.01324 16.1023 3.45198L16.112 4.52571Z" fill="#20478B"/>
<path d="M26.8096 15.3903V0.132324H33.2876V2.19033H28.9831V15.3903H26.8096Z" fill="#20478B"/>
<path d="M53.0448 0.131324L50.7862 15.3893H48.7306L47.0675 5.48446H47.025L45.3929 15.3893H43.347L41.0884 0.125488H43.3895L44.4763 9.82026H44.5189L46.2167 0.131324H47.8797L49.6491 10.0517H49.6975L50.7417 0.131324H53.0448Z" fill="#20478B"/>
<path d="M62.4429 15.3903V0.132324H65.941C68.4987 0.132324 69.7776 1.62363 69.7776 4.60623C69.7993 5.39147 69.6577 6.1726 69.3618 6.8996C69.0583 7.5573 68.5442 8.09359 67.9019 8.42267L70.2436 15.3903H67.9425L65.9178 8.87396H64.6183V15.3903H62.4429ZM64.6164 2.18449V6.94823H65.8521C66.1656 6.96124 66.4782 6.90617 66.7687 6.78678C66.9869 6.6879 67.1722 6.52784 67.3024 6.32577C67.4255 6.09622 67.5049 5.84552 67.5364 5.58661C67.6216 4.91045 67.6216 4.22616 67.5364 3.55C67.5022 3.28197 67.4155 3.02344 67.2811 2.78944C67.0117 2.39003 66.5005 2.18968 65.7477 2.18838L64.6164 2.18449Z" fill="#20478B"/>
<path d="M71.522 0.132324V15.3961H75.5751L78.0001 13.2098V11.1868H75.5751V13.2098H73.6955V2.19033H78.0001V0.132324H71.522Z" fill="#20478B"/>
<path d="M77.9999 5.75732H75.575V8.19657H77.9999V5.75732Z" fill="#F47A35"/>
<path d="M30.0486 8.19268V5.75732H32.4735V8.19268H30.0486Z" fill="#F47A35"/>
<path d="M57.9897 0.132324H56.1777L52.7898 15.3961H54.9633L55.9882 10.0566H55.9863L57.0518 4.52648H57.0943L59.2041 15.3961H61.3776L57.9897 0.132324Z" fill="#20478B"/>
<path d="M6.06232 1.20527C5.41774 0.519268 4.46955 0.17627 3.21777 0.17627H0V2.23232H3.17523C3.81981 2.23232 4.26006 2.39702 4.49598 2.7264C4.7319 3.05578 4.85244 3.52003 4.85759 4.11915V11.4719C4.85759 12.1294 4.72868 12.6118 4.47084 12.9191C4.21301 13.2265 3.77985 13.3802 3.17136 13.3802H2.17354V6.57202H0V15.4381H3.02633C4.3155 15.4381 5.30622 15.099 5.99851 14.4208C6.69079 13.7426 7.03565 12.6883 7.03307 11.258V4.11915C7.03307 2.86256 6.70949 1.89127 6.06232 1.20527Z" fill="#F47A35"/>
<path d="M17.5975 3.73232C17.5859 3.17219 17.6947 2.61616 17.9165 2.10226C18.1138 1.65254 18.4046 1.25059 18.7693 0.923478C19.1098 0.623298 19.5034 0.390349 19.9296 0.23683C20.5678 0.00571017 21.2552 -0.0525113 21.9228 0.0680097C22.5904 0.188531 23.2148 0.483555 23.7333 0.923478C24.0871 1.25554 24.3701 1.65662 24.5648 2.10226C24.7866 2.61616 24.8954 3.17219 24.8839 3.73232V11.7931C24.8994 12.3605 24.7905 12.9244 24.5648 13.4446C24.3696 13.8776 24.0863 14.2646 23.7333 14.5806C23.387 14.89 22.9854 15.1303 22.5498 15.2886C21.7038 15.6033 20.7737 15.6033 19.9276 15.2886C19.4977 15.1332 19.1031 14.8924 18.7674 14.5806C18.4071 14.2685 18.1193 13.8808 17.9243 13.4446C17.6959 12.925 17.5844 12.3611 17.5975 11.7931V3.73232ZM19.771 11.7931C19.771 12.3222 19.9167 12.7113 20.208 12.9603C20.4985 13.2027 20.8641 13.3355 21.2416 13.3355C21.6191 13.3355 21.9847 13.2027 22.2752 12.9603C22.5666 12.71 22.7123 12.3209 22.7123 11.7931V3.73232C22.7123 3.20323 22.5666 2.81419 22.2752 2.56521C21.9847 2.32273 21.6191 2.19001 21.2416 2.19001C20.8641 2.19001 20.4985 2.32273 20.208 2.56521C19.9167 2.81549 19.771 3.20453 19.771 3.73232V11.7931Z" fill="#20478B"/>
<path d="M36.1225 15.3903V2.19033H33.6086V0.132324H40.8119V2.19033H38.2883V15.3903H36.1225Z" fill="#20478B"/>
</svg>
