<svg width="58" height="59" viewBox="0 0 58 59" fill="none" xmlns="http://www.w3.org/2000/svg">
<path d="M12.0964 52.8759L17.5434 47.3968C14.4841 45.4539 11.9637 42.7636 10.2171 39.5765C8.47044 36.3894 7.55441 32.8094 7.55441 29.1701C7.55441 25.5308 8.47044 21.9508 10.2171 18.7637C11.9637 15.5766 14.4841 12.8863 17.5434 10.9435L12.0994 5.46436C8.35572 8.16496 5.30552 11.7238 3.2014 15.8463C1.09727 19.9687 -0.000244141 24.5361 -0.000244141 29.1701C-0.000244141 33.8041 1.09727 38.3715 3.2014 42.4939C5.30552 46.6164 8.35572 50.1753 12.0994 52.8759H12.0964Z" fill="#F47A35"/>
<path d="M28.9962 4.56798e-05C23.5525 -0.00966682 18.2171 1.52962 13.606 4.44016L19.1441 10.014V48.3233L13.606 53.8942C17.4133 56.2929 21.7225 57.7691 26.1939 58.2063C30.6653 58.6435 35.1765 58.0298 39.3718 56.4136C43.5671 54.7973 47.3317 52.2227 50.3688 48.8929C53.4059 45.563 55.6324 41.5689 56.8727 37.2255C58.113 32.8822 58.3332 28.3083 57.516 23.8647C56.6987 19.4211 54.8663 15.2293 52.1633 11.6198C49.4603 8.01029 45.9606 5.08182 41.9402 3.06534C37.9198 1.04886 33.4887 -0.000489958 28.9962 4.56798e-05ZM28.9962 50.7387C28.1227 50.7366 27.25 50.6813 26.3831 50.573V7.76729C29.2882 7.40618 32.2361 7.6473 35.0451 8.47578C37.8541 9.30427 40.4646 10.7026 42.7159 12.5845C44.9672 14.4665 46.8116 16.7922 48.1353 19.4185C49.4591 22.0447 50.2342 24.9158 50.413 27.8548C50.5917 30.7939 50.1702 33.7386 49.1745 36.5075C48.1789 39.2765 46.6301 41.811 44.6236 43.955C42.6171 46.0989 40.1954 47.8068 37.5078 48.9735C34.8201 50.1402 31.9235 50.741 28.9962 50.7387Z" fill="#20478B"/>
</svg>
