<svg width="52" height="52" viewBox="0 0 52 52" fill="none" xmlns="http://www.w3.org/2000/svg">
<path d="M43.3334 19.4993V15.166H34.6667C33.5174 15.166 32.4152 15.6226 31.6026 16.4352C30.7899 17.2479 30.3334 18.3501 30.3334 19.4993V23.8327C30.3334 24.982 30.7899 26.0842 31.6026 26.8968C32.4152 27.7095 33.5174 28.166 34.6667 28.166H39V32.4993H30.3334V36.8327H39C40.1493 36.8327 41.2515 36.3761 42.0641 35.5635C42.8768 34.7508 43.3334 33.6486 43.3334 32.4993V28.166C43.3334 27.0167 42.8768 25.9145 42.0641 25.1019C41.2515 24.2892 40.1493 23.8327 39 23.8327H34.6667V19.4993H43.3334ZM23.8334 32.4993H19.5V19.4993H23.8334V32.4993ZM23.8334 15.166H19.5C18.3507 15.166 17.2485 15.6226 16.4359 16.4352C15.6232 17.2479 15.1667 18.3501 15.1667 19.4993V32.4993C15.1667 33.6486 15.6232 34.7508 16.4359 35.5635C17.2485 36.3761 18.3507 36.8327 19.5 36.8327H23.8334C24.9826 36.8327 26.0848 36.3761 26.8975 35.5635C27.7101 34.7508 28.1667 33.6486 28.1667 32.4993V19.4993C28.1667 18.3501 27.7101 17.2479 26.8975 16.4352C26.0848 15.6226 24.9826 15.166 23.8334 15.166ZM8.66669 36.8327H13V23.8327H8.66669V36.8327ZM8.66669 19.4993H13V15.166H8.66669V19.4993Z" fill="#20478B"/>
</svg>
