<svg width="52" height="52" viewBox="0 0 52 52" fill="none" xmlns="http://www.w3.org/2000/svg">
<path d="M35.4466 30.334C35.62 28.904 35.75 27.474 35.75 26.0007C35.75 24.5273 35.62 23.0973 35.4466 21.6673H42.77C43.1166 23.054 43.3333 24.5057 43.3333 26.0007C43.3333 27.4957 43.1166 28.9473 42.77 30.334H35.4466ZM31.6116 42.3806C32.9116 39.9757 33.9083 37.3757 34.6016 34.6673H40.9933C38.9133 38.2423 35.5983 41.0157 31.6116 42.3806ZM31.07 30.334H20.93C20.7133 28.904 20.5833 27.474 20.5833 26.0007C20.5833 24.5273 20.7133 23.0757 20.93 21.6673H31.07C31.265 23.0757 31.4166 24.5273 31.4166 26.0007C31.4166 27.474 31.265 28.904 31.07 30.334ZM26 43.2473C24.2016 40.6473 22.75 37.7657 21.8616 34.6673H30.1383C29.25 37.7657 27.7983 40.6473 26 43.2473ZM17.3333 17.334H11.0066C13.065 13.7373 16.4016 10.964 20.3666 9.62065C19.0666 12.0257 18.0916 14.6257 17.3333 17.334ZM11.0066 34.6673H17.3333C18.0916 37.3757 19.0666 39.9757 20.3666 42.3806C16.4016 41.0157 13.065 38.2423 11.0066 34.6673ZM9.22998 30.334C8.88331 28.9473 8.66665 27.4957 8.66665 26.0007C8.66665 24.5057 8.88331 23.054 9.22998 21.6673H16.5533C16.38 23.0973 16.25 24.5273 16.25 26.0007C16.25 27.474 16.38 28.904 16.5533 30.334H9.22998ZM26 8.73232C27.7983 11.3323 29.25 14.2357 30.1383 17.334H21.8616C22.75 14.2357 24.2016 11.3323 26 8.73232ZM40.9933 17.334H34.6016C33.9083 14.6257 32.9116 12.0257 31.6116 9.62065C35.5983 10.9857 38.9133 13.7373 40.9933 17.334ZM26 4.33398C14.0183 4.33398 4.33331 14.084 4.33331 26.0007C4.33331 31.747 6.61604 37.258 10.6793 41.3213C12.6913 43.3332 15.0798 44.9292 17.7085 46.018C20.3372 47.1069 23.1547 47.6673 26 47.6673C31.7463 47.6673 37.2573 45.3846 41.3206 41.3213C45.3839 37.258 47.6666 31.747 47.6666 26.0007C47.6666 23.1553 47.1062 20.3379 46.0174 17.7092C44.9285 15.0805 43.3326 12.6919 41.3206 10.68C39.3087 8.66807 36.9202 7.07211 34.2915 5.98326C31.6627 4.89441 28.8453 4.33398 26 4.33398Z" fill="#20478B"/>
</svg>
