<svg width="52" height="52" viewBox="0 0 52 52" fill="none" xmlns="http://www.w3.org/2000/svg">
<path d="M26 21.6673C27.1493 21.6673 28.2515 22.1239 29.0641 22.9365C29.8768 23.7492 30.3333 24.8514 30.3333 26.0007C30.3333 27.084 29.9433 28.0373 29.315 28.7957L36.1833 47.6673H31.5683L26 32.349L20.4317 47.6673H15.8167L22.685 28.7957C22.0567 28.0373 21.6667 27.084 21.6667 26.0007C21.6667 24.8514 22.1232 23.7492 22.9359 22.9365C23.7485 22.1239 24.8507 21.6673 26 21.6673ZM26 17.334C23.7015 17.334 21.4971 18.2471 19.8717 19.8724C18.2464 21.4977 17.3333 23.7021 17.3333 26.0007C17.3333 27.084 17.55 28.1673 17.94 29.164L16.0333 34.364C14.1483 32.089 13 29.1857 13 26.0007C13 22.5528 14.3696 19.2462 16.8076 16.8083C19.2456 14.3703 22.5522 13.0007 26 13.0007C29.4478 13.0007 32.7544 14.3703 35.1924 16.8083C37.6304 19.2462 39 22.5528 39 26.0007C39 29.1857 37.8517 32.089 35.9667 34.364L34.06 29.164C34.45 28.1673 34.6667 27.084 34.6667 26.0007C34.6667 23.7021 33.7536 21.4977 32.1283 19.8724C30.5029 18.2471 28.2985 17.334 26 17.334ZM26 8.66732C21.4029 8.66732 16.9941 10.4935 13.7435 13.7441C10.4929 16.9948 8.66667 21.4036 8.66667 26.0007C8.66667 31.114 10.8333 35.7507 14.3867 38.8707L12.8267 43.204C7.67 39.239 4.33334 32.999 4.33334 26.0007C4.33334 20.2543 6.61607 14.7433 10.6794 10.68C14.7426 6.61672 20.2536 4.33398 26 4.33398C28.8453 4.33398 31.6628 4.89441 34.2915 5.98326C36.9202 7.07211 39.3087 8.66807 41.3207 10.68C43.3326 12.6919 44.9285 15.0805 46.0174 17.7092C47.1062 20.3379 47.6667 23.1553 47.6667 26.0007C47.6667 32.999 44.33 39.239 39.1733 43.204L37.6133 38.8707C41.1667 35.7507 43.3333 31.114 43.3333 26.0007C43.3333 21.4036 41.5072 16.9948 38.2565 13.7441C35.0059 10.4935 30.5971 8.66732 26 8.66732Z" fill="#20478B"/>
</svg>
