<svg width="52" height="52" viewBox="0 0 52 52" fill="none" xmlns="http://www.w3.org/2000/svg">
<path d="M32.5 19.4991C31.9254 19.4991 31.3743 19.2709 30.9679 18.8645C30.5616 18.4582 30.3333 17.9071 30.3333 17.3325C30.3333 16.7578 30.5616 16.2067 30.9679 15.8004C31.3743 15.3941 31.9254 15.1658 32.5 15.1658C33.0746 15.1658 33.6257 15.3941 34.0321 15.8004C34.4384 16.2067 34.6667 16.7578 34.6667 17.3325C34.6667 17.9071 34.4384 18.4582 34.0321 18.8645C33.6257 19.2709 33.0746 19.4991 32.5 19.4991ZM19.5 19.4991C18.9254 19.4991 18.3743 19.2709 17.9679 18.8645C17.5616 18.4582 17.3333 17.9071 17.3333 17.3325C17.3333 16.7578 17.5616 16.2067 17.9679 15.8004C18.3743 15.3941 18.9254 15.1658 19.5 15.1658C20.0746 15.1658 20.6257 15.3941 21.0321 15.8004C21.4384 16.2067 21.6667 16.7578 21.6667 17.3325C21.6667 17.9071 21.4384 18.4582 21.0321 18.8645C20.6257 19.2709 20.0746 19.4991 19.5 19.4991ZM34.9267 9.46747L39.4767 4.91747L37.7 3.11914L32.695 8.12414C30.68 7.10581 28.405 6.49914 26 6.49914C23.5733 6.49914 21.32 7.10581 19.305 8.12414L14.3 3.11914L12.5233 4.91747L17.0733 9.46747C13.3033 12.2191 10.8333 16.6391 10.8333 21.6658V23.8325H41.1667V21.6658C41.1667 16.6391 38.6967 12.2191 34.9267 9.46747ZM10.8333 34.6658C10.8333 43.0291 17.615 49.8325 26 49.8325C30.0225 49.8325 33.8802 48.2346 36.7245 45.3903C39.5688 42.546 41.1667 38.6883 41.1667 34.6658V25.9991H10.8333V34.6658Z" fill="#20478B"/>
</svg>
