<svg width="52" height="52" viewBox="0 0 52 52" fill="none" xmlns="http://www.w3.org/2000/svg">
<g clip-path="url(#clip0)">
<path d="M49.8333 34.666V33.5827C49.8333 32.1461 49.2627 30.7683 48.2468 29.7525C47.231 28.7367 45.8533 28.166 44.4167 28.166C42.9801 28.166 41.6023 28.7367 40.5865 29.7525C39.5707 30.7683 39 32.1461 39 33.5827V34.666C38.4254 34.666 37.8743 34.8943 37.4679 35.3006C37.0616 35.7069 36.8333 36.258 36.8333 36.8327V45.4993C36.8333 46.074 37.0616 46.6251 37.4679 47.0314C37.8743 47.4377 38.4254 47.666 39 47.666H49.8333C50.408 47.666 50.9591 47.4377 51.3654 47.0314C51.7717 46.6251 52 46.074 52 45.4993V36.8327C52 36.258 51.7717 35.7069 51.3654 35.3006C50.9591 34.8943 50.408 34.666 49.8333 34.666ZM47.6667 34.666H41.1667V33.5827C41.1667 32.7207 41.5091 31.8941 42.1186 31.2846C42.7281 30.6751 43.5547 30.3327 44.4167 30.3327C45.2786 30.3327 46.1053 30.6751 46.7148 31.2846C47.3243 31.8941 47.6667 32.7207 47.6667 33.5827V34.666ZM15.1667 19.2827H23.8333V15.166H15.1667C12.2935 15.166 9.53799 16.3074 7.50635 18.339C5.4747 20.3707 4.33334 23.1262 4.33334 25.9993C4.33334 28.8725 5.4747 31.628 7.50635 33.6597C9.53799 35.6913 12.2935 36.8327 15.1667 36.8327H23.8333V32.716H15.1667C13.3853 32.716 11.6769 32.0084 10.4173 30.7487C9.15765 29.4891 8.45 27.7807 8.45 25.9993C8.45 24.218 9.15765 22.5096 10.4173 21.2499C11.6769 19.9903 13.3853 19.2827 15.1667 19.2827ZM17.3333 23.8327V28.166H34.6667V23.8327H17.3333ZM28.1667 32.716V36.8327H32.5V32.716H28.1667ZM36.8333 15.166H28.1667V19.2827H36.8333C38.2382 19.2768 39.6094 19.7131 40.7526 20.5297C41.8959 21.3463 42.7532 22.5018 43.2033 23.8327C43.6075 23.8105 44.0125 23.8105 44.4167 23.8327H47.45C46.9505 21.3857 45.6209 19.1865 43.6863 17.6072C41.7516 16.0279 39.3308 15.1655 36.8333 15.166Z" fill="#20478B"/>
</g>
<defs>
<clipPath id="clip0">
<rect width="52" height="52" fill="white"/>
</clipPath>
</defs>
</svg>
