<svg width="52" height="52" viewBox="0 0 52 52" fill="none" xmlns="http://www.w3.org/2000/svg">
<path d="M28.1667 19.5007H40.0833L28.1667 7.58398V19.5007ZM13 4.33398H30.3333L43.3333 17.334V43.334C43.3333 44.4833 42.8768 45.5855 42.0641 46.3981C41.2515 47.2108 40.1493 47.6673 39 47.6673H13C10.595 47.6673 8.66666 45.7173 8.66666 43.334V8.66732C8.66666 6.26232 10.595 4.33398 13 4.33398ZM33.9733 32.5007C33.2367 28.8173 29.9433 26.0007 26 26.0007C22.8583 26.0007 20.15 27.7773 18.8067 30.334C15.535 30.724 13 33.4757 13 36.834C13 38.5579 13.6848 40.2112 14.9038 41.4302C16.1228 42.6492 17.7761 43.334 19.5 43.334H33.5833C35.0199 43.334 36.3977 42.7633 37.4135 41.7475C38.4293 40.7317 39 39.3539 39 37.9173C39 35.0573 36.7683 32.739 33.9733 32.5007Z" fill="#20478B"/>
</svg>
