<svg width="80" height="80" viewBox="0 0 80 80" fill="none" xmlns="http://www.w3.org/2000/svg">
<path d="M40 6.66797C41.7681 6.66797 43.4638 7.37035 44.714 8.62059C45.9643 9.87083 46.6667 11.5665 46.6667 13.3346C46.6667 15.8013 45.3333 17.968 43.3333 19.1013V23.3346H46.6667C52.855 23.3346 58.79 25.793 63.1658 30.1688C67.5417 34.5447 70 40.4796 70 46.668H73.3333C74.2174 46.668 75.0652 47.0192 75.6904 47.6443C76.3155 48.2694 76.6667 49.1173 76.6667 50.0013V60.0013C76.6667 60.8854 76.3155 61.7332 75.6904 62.3583C75.0652 62.9835 74.2174 63.3346 73.3333 63.3346H70V66.668C70 68.4361 69.2976 70.1318 68.0474 71.382C66.7971 72.6323 65.1014 73.3346 63.3333 73.3346H16.6667C14.8986 73.3346 13.2029 72.6323 11.9526 71.382C10.7024 70.1318 10 68.4361 10 66.668V63.3346H6.66667C5.78261 63.3346 4.93477 62.9835 4.30965 62.3583C3.68453 61.7332 3.33334 60.8854 3.33334 60.0013V50.0013C3.33334 49.1173 3.68453 48.2694 4.30965 47.6443C4.93477 47.0192 5.78261 46.668 6.66667 46.668H10C10 40.4796 12.4583 34.5447 16.8342 30.1688C21.21 25.793 27.1449 23.3346 33.3333 23.3346H36.6667V19.1013C34.6667 17.968 33.3333 15.8013 33.3333 13.3346C33.3333 11.5665 34.0357 9.87083 35.286 8.62059C36.5362 7.37035 38.2319 6.66797 40 6.66797ZM25 43.3346C22.7899 43.3346 20.6702 44.2126 19.1074 45.7754C17.5446 47.3382 16.6667 49.4578 16.6667 51.668C16.6667 53.8781 17.5446 55.9977 19.1074 57.5605C20.6702 59.1233 22.7899 60.0013 25 60.0013C27.2101 60.0013 29.3298 59.1233 30.8926 57.5605C32.4554 55.9977 33.3333 53.8781 33.3333 51.668C33.3333 49.4578 32.4554 47.3382 30.8926 45.7754C29.3298 44.2126 27.2101 43.3346 25 43.3346ZM55 43.3346C52.7899 43.3346 50.6702 44.2126 49.1074 45.7754C47.5446 47.3382 46.6667 49.4578 46.6667 51.668C46.6667 53.8781 47.5446 55.9977 49.1074 57.5605C50.6702 59.1233 52.7899 60.0013 55 60.0013C57.2101 60.0013 59.3298 59.1233 60.8926 57.5605C62.4554 55.9977 63.3333 53.8781 63.3333 51.668C63.3333 49.4578 62.4554 47.3382 60.8926 45.7754C59.3298 44.2126 57.2101 43.3346 55 43.3346Z" fill="#20478B"/>
</svg>
