<svg width="52" height="52" viewBox="0 0 52 52" fill="none" xmlns="http://www.w3.org/2000/svg">
<path d="M28.1667 41.1667H30.3333C30.908 41.1667 31.4591 41.3949 31.8654 41.8013C32.2717 42.2076 32.5 42.7587 32.5 43.3333H47.6667V47.6667H32.5C32.5 48.2413 32.2717 48.7924 31.8654 49.1987C31.4591 49.6051 30.908 49.8333 30.3333 49.8333H21.6667C21.092 49.8333 20.5409 49.6051 20.1346 49.1987C19.7283 48.7924 19.5 48.2413 19.5 47.6667H4.33334V43.3333H19.5C19.5 42.7587 19.7283 42.2076 20.1346 41.8013C20.5409 41.3949 21.092 41.1667 21.6667 41.1667H23.8333V36.8333H8.66668C8.09204 36.8333 7.54094 36.6051 7.13461 36.1987C6.72828 35.7924 6.50001 35.2413 6.50001 34.6667V26C6.50001 25.4254 6.72828 24.8743 7.13461 24.4679C7.54094 24.0616 8.09204 23.8333 8.66668 23.8333H43.3333C43.908 23.8333 44.4591 24.0616 44.8654 24.4679C45.2717 24.8743 45.5 25.4254 45.5 26V34.6667C45.5 35.2413 45.2717 35.7924 44.8654 36.1987C44.4591 36.6051 43.908 36.8333 43.3333 36.8333H28.1667V41.1667ZM8.66668 6.5H43.3333C43.908 6.5 44.4591 6.72827 44.8654 7.1346C45.2717 7.54093 45.5 8.09203 45.5 8.66667V17.3333C45.5 17.908 45.2717 18.4591 44.8654 18.8654C44.4591 19.2717 43.908 19.5 43.3333 19.5H8.66668C8.09204 19.5 7.54094 19.2717 7.13461 18.8654C6.72828 18.4591 6.50001 17.908 6.50001 17.3333V8.66667C6.50001 8.09203 6.72828 7.54093 7.13461 7.1346C7.54094 6.72827 8.09204 6.5 8.66668 6.5ZM19.5 15.1667H21.6667V10.8333H19.5V15.1667ZM19.5 32.5H21.6667V28.1667H19.5V32.5ZM10.8333 10.8333V15.1667H15.1667V10.8333H10.8333ZM10.8333 28.1667V32.5H15.1667V28.1667H10.8333Z" fill="#20478B"/>
</svg>
