<svg width="52" height="52" viewBox="0 0 52 52" fill="none" xmlns="http://www.w3.org/2000/svg">
<path d="M34.6666 38.9993H15.1666V8.66602H34.6666V38.9993ZM24.9166 47.666C24.0547 47.666 23.228 47.3236 22.6186 46.7141C22.0091 46.1046 21.6666 45.278 21.6666 44.416C21.6666 43.5541 22.0091 42.7274 22.6186 42.1179C23.228 41.5084 24.0547 41.166 24.9166 41.166C25.7786 41.166 26.6053 41.5084 27.2147 42.1179C27.8242 42.7274 28.1666 43.5541 28.1666 44.416C28.1666 45.278 27.8242 46.1046 27.2147 46.7141C26.6053 47.3236 25.7786 47.666 24.9166 47.666ZM33.5833 2.16602H16.25C14.8134 2.16602 13.4356 2.7367 12.4198 3.75252C11.404 4.76834 10.8333 6.14609 10.8333 7.58268V44.416C10.8333 45.8526 11.404 47.2304 12.4198 48.2462C13.4356 49.262 14.8134 49.8327 16.25 49.8327H33.5833C35.0199 49.8327 36.3977 49.262 37.4135 48.2462C38.4293 47.2304 39 45.8526 39 44.416V7.58268C39 6.14609 38.4293 4.76834 37.4135 3.75252C36.3977 2.7367 35.0199 2.16602 33.5833 2.16602Z" fill="#20478B"/>
</svg>
