<svg width="52" height="52" viewBox="0 0 52 52" fill="none" xmlns="http://www.w3.org/2000/svg">
<path d="M47.0383 43.9623L43.9617 47.039C43.5557 47.4425 43.0066 47.669 42.4342 47.669C41.8618 47.669 41.3126 47.4425 40.9067 47.039L15.1667 21.3423C14.4621 21.5464 13.7335 21.6557 13 21.6673C11.6205 21.6663 10.2611 21.3361 9.03498 20.7039C7.80882 20.0718 6.75126 19.1561 5.95024 18.033C5.14922 16.9099 4.62787 15.6118 4.42955 14.2466C4.23123 12.8814 4.36166 11.4886 4.81 10.184L10.3133 15.6873L11.4617 14.539L14.5383 11.4623L15.6867 10.314L10.1833 4.81065C11.488 4.36231 12.8808 4.23188 14.2459 4.4302C15.6111 4.62852 16.9092 5.14986 18.0324 5.95089C19.1555 6.75191 20.0712 7.80946 20.7033 9.03563C21.3354 10.2618 21.6657 11.6211 21.6667 13.0007C21.6551 13.7341 21.5458 14.4627 21.3417 15.1673L47.0383 40.9073C47.4419 41.3133 47.6684 41.8624 47.6684 42.4348C47.6684 43.0072 47.4419 43.5564 47.0383 43.9623ZM4.96167 40.9073C4.55813 41.3133 4.33162 41.8624 4.33162 42.4348C4.33162 43.0072 4.55813 43.5564 4.96167 43.9623L8.03834 47.039C8.44429 47.4425 8.99343 47.669 9.56584 47.669C10.1382 47.669 10.6874 47.4425 11.0933 47.039L22.945 35.209L16.8133 29.0773L4.96167 40.9073ZM43.3333 4.33398L34.6667 8.66732V13.0007L29.965 17.7023L34.2983 22.0357L39 17.334H43.3333L47.6667 8.66732L43.3333 4.33398Z" fill="#20478B"/>
</svg>
