<svg width="52" height="52" viewBox="0 0 52 52" fill="none" xmlns="http://www.w3.org/2000/svg">
<path d="M26 6.5C16.4234 6.5 8.66669 10.3783 8.66669 15.1667C8.66669 19.955 16.4234 23.8333 26 23.8333C35.5767 23.8333 43.3334 19.955 43.3334 15.1667C43.3334 10.3783 35.5767 6.5 26 6.5ZM8.66669 19.5V26C8.66669 30.7883 16.4234 34.6667 26 34.6667C35.5767 34.6667 43.3334 30.7883 43.3334 26V19.5C43.3334 24.2883 35.5767 28.1667 26 28.1667C16.4234 28.1667 8.66669 24.2883 8.66669 19.5ZM8.66669 30.3333V36.8333C8.66669 41.6217 16.4234 45.5 26 45.5C35.5767 45.5 43.3334 41.6217 43.3334 36.8333V30.3333C43.3334 35.1217 35.5767 39 26 39C16.4234 39 8.66669 35.1217 8.66669 30.3333Z" fill="#20478B"/>
</svg>
